Simulation
nRows=32
nColumns=15
endheader
time  TH_x TH_y TH_z SC_y  SC_z  SC_x  AC_y  AC_z  AC_x  GH_y  GH_z  GH_yy  EL_x  PS_y
0.0  0.000000  0.000000  0.000000  -40.97484877243665  6.293857566463187  5.290427962726946  38.54054025696859  -2.283029874148476  -7.795104364215373  115.85411434271315  7.150093840587964  -83.81865295806064  22.543244858863723  120.000000
0.05745  0.000000  0.000000  0.000000  -39.361128304838005  5.28437973246145  4.274173561858409  39.53048878512469  -2.4213521071461033  -6.598504267760945  74.70791862360338  5.691603088858086  -45.934920792741615  21.98035545620883  120.000000
0.1149  0.000000  0.000000  0.000000  -37.68392112266981  4.223972288999021  3.0725502759588847  40.62272709508936  -2.72565874831512  -5.284003258955893  35.35822558785061  7.433504252016125  -9.835315135590534  21.594832426658684  120.000000
0.17235  0.000000  0.000000  0.000000  -36.039540036746516  2.9948483306665397  1.7294114214172336  41.886664775725144  -3.2934617057262874  -3.7865002454118537  14.222951065426933  11.11848411987196  8.05198300207365  21.46596750064889  120.000000
0.2298  0.000000  0.000000  0.000000  -34.61355355554959  1.4314173682872422  0.3040488973330032  43.47063513102041  -4.208855865570233  -2.023509830377213  2.3003774798229335  15.92398106525645  16.729770906768866  21.605322800108677  120.000000
0.28725  0.000000  0.000000  0.000000  -33.521526909683786  -0.5608253733074126  -1.1574195541910284  45.45082403561033  -5.536706370687002  0.04163640252341057  -5.663155163772154  21.75677606852505  21.47928144519852  21.963220505823415  120.000000
0.3447  0.000000  0.000000  0.000000  -32.78511718500957  -2.919755675466732  -2.5546727226896233  47.71218760462334  -7.366020728712983  2.3677830668862265  -11.6399088023376  28.565930018946617  24.269179001389734  22.440570723345157  120.000000
0.40215  0.000000  0.000000  0.000000  -32.356365586595075  -5.471739856549196  -3.7673920300238892  49.96172979087586  -9.674247255214377  4.831826961881325  -16.406823431778363  36.108866196838925  25.803285730288444  22.888162687783637  120.000000
0.4596  0.000000  0.000000  0.000000  -32.1524286724729  -7.934841741311462  -4.8284913156985025  51.91108552689691  -12.134109687633462  7.3335383241184  -20.17864629092597  43.87300115046518  26.24227659558989  23.183750792710622  120.000000
0.51705  0.000000  0.000000  0.000000  -32.110420331177885  -9.947109889722649  -5.805496450451667  53.44058567468752  -14.243931623377414  9.735377413082512  -22.889104105425023  51.166685464876586  25.56926102653223  23.28541035196234  120.000000
0.5745  0.000000  0.000000  0.000000  -32.187085584553714  -11.202001500503462  -6.614879192319265  54.59899459054058  -15.581007154455575  11.770883153921393  -24.507441374986048  57.402235127002115  23.8672197330276  23.194766048403675  120.000000
0.63195  0.000000  0.000000  0.000000  -32.409759990537125  -11.530140885818817  -7.097999978568196  55.57041256473216  -15.930696415643727  13.269514180867354  -25.21579803949971  62.335506608264026  21.458247000658723  22.920727953105743  120.000000
0.6894  0.000000  0.000000  0.000000  -32.92619146408481  -10.891247431969623  -7.0693283699246985  56.672858453272404  -15.353101677688926  14.366947424878818  -25.48947376847533  66.08036658642382  19.01296596743299  22.52934025401937  120.000000
0.74685  0.000000  0.000000  0.000000  -33.90216633820756  -9.31151212925022  -6.363537808656906  58.17542238202549  -14.117237378706454  15.371878642498558  -25.777872276286327  68.79041721946054  17.097570629778875  22.110397779771173  120.000000
0.8043  0.000000  0.000000  0.000000  -35.31193820886499  -6.843639825933633  -4.866321321801398  60.109346973094986  -12.568109933399606  16.50899826049101  -26.214423080629984  70.44838121706353  15.727697984598308  21.69166619917926  120.000000
0.86175  0.000000  0.000000  0.000000  -36.91411930623915  -3.682762002453517  -2.5183476300899597  62.32688980433394  -11.017979139165552  17.847850564794502  -26.861916998477295  71.12989666491951  14.704541221543684  21.260649565696564  120.000000
0.9192  0.000000  0.000000  0.000000  -38.50480450660683  -0.23012690922992968  0.6067815671686205  64.6000649699975  -9.730718865422602  19.323183131951648  -27.701551589346327  71.24575988156494  13.79944616124532  20.81127820346616  120.000000
0.97665  0.000000  0.000000  0.000000  -39.99448438425411  3.1184601638392757  4.341329183343851  66.74247093444338  -8.868256853784247  20.771212916181355  -28.62654452561705  71.25142251513168  12.875273417296567  20.362857898128844  120.000000
1.0341  0.000000  0.000000  0.000000  -41.358260163865786  6.16162071728159  8.539214777293834  68.61578070283215  -8.415082492819884  22.0066120721588  -29.533207040227882  71.26678975447808  11.968971747365373  19.946698215992498  120.000000
1.09155  0.000000  0.000000  0.000000  -42.625504821460524  8.827217089467943  13.03393888288262  70.06743629097949  -8.278942327825034  22.863306735239323  -30.224253776001657  71.21822634617372  11.059937857241165  19.57323443315243  120.000000
1.149  0.000000  0.000000  0.000000  -43.82652291654194  11.08865137789964  17.61978039186978  70.97995440832197  -8.365001769418752  23.231413380783028  -30.503308655762236  71.03872385643928  10.076397815352554  19.22635074511648  120.000000
1.20645  0.000000  0.000000  0.000000  -44.95424683942864  12.948150699066199  22.104805224834514  71.34103554438107  -8.59699152269197  23.115875002040298  -30.32875258368437  70.73103395839578  9.040462083920355  18.889358279856022  120.000000
1.2639  0.000000  0.000000  0.000000  -45.987588608122635  14.455325096176377  26.349308495602376  71.26030402742866  -8.961050049063633  22.661033078184367  -29.820574062925928  70.36716088842283  8.067961882915501  18.55521318421332  120.000000
1.32135  0.000000  0.000000  0.000000  -46.91502632766855  15.661853875908339  30.23185494182022  70.90212340933648  -9.44516013002907  22.046413163381196  -29.14451643217937  70.01694828861827  7.2557565615526896  18.228721231622423  120.000000
1.3788  0.000000  0.000000  0.000000  -47.70852876172687  16.578730777295675  33.59785961193916  70.41871606808733  -9.972847416106568  21.387715145719106  -28.434430214821457  69.71545181528629  6.62951362378764  17.92399664566107  120.000000
1.43625  0.000000  0.000000  0.000000  -48.331525095582585  17.2140597369414  36.29083552773246  69.93312560206975  -10.46178994159076  20.770748718754604  -27.78053543590718  69.46993369242537  6.15529514648776  17.65793505995382  120.000000
1.4937  0.000000  0.000000  0.000000  -48.749765776511616  17.590722520702744  38.16962062677617  69.5383224588552  -10.85633392736986  20.26423255577067  -27.23833330992314  69.27380989547655  5.7712161866130725  17.445423198039386  120.000000
1.55115  0.000000  0.000000  0.000000  -48.93064189897398  17.73052964377342  39.11968631457052  69.2927511702217  -11.120666200130241  19.91649344870864  -26.843462992858413  69.1182586916659  5.418276679420585  17.297206468177784  120.000000
1.6086  0.000000  0.000000  0.000000  -48.850833783062356  17.64731557894486  39.063752506371095  69.22528048492238  -11.235841736195818  19.756385160307307  -26.618504619441325  68.99757176560239  5.059901748873663  17.21908124210294  120.000000
1.66605  0.000000  0.000000  0.000000  -48.5024629455898  17.335873683999807  37.97554814071987  69.33524080305538  -11.194688510800777  19.797087128678445  -26.57411429871209  68.91028908921163  4.688614630016463  17.211382174632924  120.000000
1.7235  0.000000  0.000000  0.000000  -47.90167103350304  16.771049681487003  35.88791841828504  69.59772108905693  -11.001439066712509  20.035082302324835  -26.705730074982462  68.85749782729224  4.322247886870989  17.26484846384072  120.000000
1.78095  0.000000  0.000000  0.000000  -47.09373033730717  15.913789858039728  32.89485189914029  69.96346104301307  -10.673915378626557  20.447696046227485  -26.98838611918299  68.83987415889887  3.994122623775626  17.358122730404336  120.000000
